<svg display="none" xmlns="http://www.w3.org/2000/svg">
    <symbol id="location" viewBox="0 0 20 30">
        <path d="M9.99998 0.719971C4.73879 0.719971 0.47998 4.97879 0.47998 10.24C0.47998 14.5975 2.76132 19.2525 5.00225 22.8638C7.24317 26.4751 9.48732 29.0475 9.48732 29.0475C9.55155 29.1211 9.63086 29.18 9.71988 29.2202C9.8089 29.2604 9.90552 29.2809 10.0032 29.2804C10.1009 29.2799 10.1973 29.2584 10.2859 29.2173C10.3745 29.1762 10.4532 29.1165 10.5166 29.0422C10.5166 29.0422 12.7593 26.4206 14.999 22.7854C17.2387 19.1502 19.52 14.5017 19.52 10.24C19.52 4.97879 15.2612 0.719971 9.99998 0.719971ZM9.99998 2.07997C14.5308 2.07997 18.16 5.70916 18.16 10.24C18.16 14.0023 16.0212 18.5334 13.8409 22.0722C12.0709 24.9452 10.5988 26.7788 9.996 27.5122C9.39004 26.7879 7.92293 24.9913 6.15771 22.1466C3.97864 18.6349 1.83998 14.1104 1.83998 10.24C1.83998 5.70916 5.46917 2.07997 9.99998 2.07997ZM9.99998 5.47997C7.38507 5.47997 5.23998 7.62506 5.23998 10.24C5.23998 12.8549 7.38507 15 9.99998 15C12.6149 15 14.76 12.8549 14.76 10.24C14.76 7.62506 12.6149 5.47997 9.99998 5.47997ZM9.99998 6.83997C11.8731 6.83997 13.4 8.36688 13.4 10.24C13.4 12.1131 11.8731 13.64 9.99998 13.64C8.12689 13.64 6.59998 12.1131 6.59998 10.24C6.59998 8.36688 8.12689 6.83997 9.99998 6.83997Z"/>
    </symbol>

    <symbol id="phone" viewBox="0 0 27 27">
        <path d="M15.693 0.178119C15.5458 0.189447 15.4008 0.209838 15.258 0.250619L5.03553 3.15062C3.88686 3.47687 3.20491 4.68445 3.53116 5.83312L8.31616 22.6531C8.32522 22.7098 8.34335 22.7641 8.37053 22.8162L9.05928 25.2631C9.38553 26.4118 10.5931 27.0756 11.7418 26.7494L21.9643 23.8494C23.113 23.5231 23.7949 22.3155 23.4687 21.1669L22.798 18.8106C22.8071 18.6747 22.7686 18.541 22.6893 18.43L17.9405 1.73687C17.6958 0.875932 16.9686 0.284604 16.128 0.178119C15.9876 0.159994 15.8403 0.166791 15.693 0.178119ZM15.7837 1.31999C16.2572 1.28374 16.699 1.58734 16.8349 2.06312L21.4568 18.3756L9.27678 21.8194L4.65491 5.50687C4.50085 4.96085 4.81577 4.41031 5.36178 4.25624L15.5843 1.35624C15.6523 1.33585 15.7157 1.32453 15.7837 1.31999ZM21.1487 5.18062C20.981 5.20781 20.8337 5.30976 20.7454 5.45703C20.6593 5.60203 20.6389 5.78101 20.6955 5.94187L23.5955 16.1644C23.6862 16.4748 24.0101 16.6537 24.3205 16.5631C24.6309 16.4725 24.8099 16.1485 24.7193 15.8381L21.8193 5.61562C21.7536 5.3596 21.5225 5.18062 21.2574 5.18062C21.2393 5.18062 21.2212 5.18062 21.203 5.18062C21.1849 5.18062 21.1668 5.18062 21.1487 5.18062ZM24.4293 7.01124C24.2616 7.03843 24.1144 7.14038 24.026 7.28765C23.9399 7.43265 23.9195 7.61163 23.9762 7.77249L25.4262 12.8837C25.5168 13.1941 25.8408 13.3731 26.1512 13.2825C26.4615 13.1919 26.6405 12.8679 26.5499 12.5575L25.0999 7.44624C25.0342 7.19023 24.8031 7.01124 24.538 7.01124C24.5199 7.01124 24.5018 7.01124 24.4837 7.01124C24.4655 7.01124 24.4474 7.01124 24.4293 7.01124ZM2.78803 10.4006C2.76991 10.4052 2.75178 10.4119 2.73366 10.4187C2.57053 10.4482 2.42553 10.5456 2.33944 10.6884C2.25335 10.8311 2.23069 11.0033 2.28053 11.1619L5.18053 21.3844C5.27116 21.6948 5.59514 21.8737 5.90553 21.7831C6.21592 21.6925 6.39491 21.3685 6.30428 21.0581L3.40428 10.8356C3.33858 10.5796 3.10749 10.4006 2.84241 10.4006C2.82428 10.4006 2.80616 10.4006 2.78803 10.4006ZM0.957409 13.6812C0.939284 13.6858 0.921159 13.6926 0.903034 13.6994C0.739909 13.7288 0.594909 13.8262 0.508816 13.969C0.422722 14.1117 0.400066 14.2839 0.449909 14.4425L1.89991 19.5537C1.99053 19.8641 2.31452 20.0431 2.62491 19.9525C2.9353 19.8619 3.11428 19.5379 3.02366 19.2275L1.57366 14.1162C1.50796 13.8602 1.27686 13.6812 1.01178 13.6812C0.993659 13.6812 0.975534 13.6812 0.957409 13.6812ZM21.783 19.4994L22.3449 21.4931C22.499 22.0391 22.184 22.5897 21.638 22.7437L11.4155 25.6437C10.8695 25.7978 10.319 25.4829 10.1649 24.9369L9.60303 22.9431L21.783 19.4994ZM16.0555 21.91C16.0034 21.9145 15.9445 21.9123 15.8924 21.9281C15.4687 22.0482 15.2286 22.5013 15.3487 22.925C15.4687 23.3487 15.9037 23.5888 16.3274 23.4687C16.7511 23.3487 16.9912 22.9137 16.8712 22.49C16.7669 22.1184 16.4248 21.8828 16.0555 21.91Z"/>
    </symbol>
    <symbol id="check" viewBox="0 0 37 37">
        <path d="M36.9272 18.7539C36.9272 16.1108 35.4251 13.8036 33.2325 12.6381C33.8314 10.3561 33.2475 7.81973 31.4673 6.03951C30.1374 4.70967 28.3856 4.04752 26.6323 4.04752C26.0389 4.04752 25.4455 4.12338 24.8687 4.27509C23.704 2.08241 21.3967 0.580322 18.7537 0.580322C16.1106 0.580322 13.8033 2.08241 12.6378 4.27509C12.0602 4.12338 11.4676 4.04752 10.8742 4.04752C9.12087 4.04752 7.36909 4.70967 6.03926 6.03951C4.25904 7.81973 3.67512 10.3553 4.27405 12.6381C2.08216 13.8036 0.580078 16.1108 0.580078 18.7539C0.580078 21.397 2.08216 23.7042 4.27484 24.8697C3.67591 27.1517 4.25983 29.6881 6.04005 31.4683C7.36988 32.7981 9.12166 33.4603 10.875 33.4603C11.4684 33.4603 12.0618 33.3844 12.6386 33.2327C13.8033 35.4254 16.1106 36.9275 18.7537 36.9275C21.3967 36.9275 23.704 35.4254 24.8695 33.2327C25.4471 33.3844 26.0397 33.4603 26.6331 33.4603C28.3864 33.4603 30.1382 32.7981 31.468 31.4683C33.2483 29.6881 33.8322 27.1525 33.2332 24.8697C35.4251 23.7042 36.9272 21.397 36.9272 18.7539ZM16.1572 25.0633L10.4065 19.3125L11.5237 18.1953L16.1572 22.8287L25.9836 13.0031L27.1009 14.1204L16.1572 25.0633Z" />
    </symbol>
    <symbol id="telegram" viewBox="0 0 29 27">
        <path d="M26.3467 0.648447C25.9674 0.665178 25.6141 0.775641 25.3031 0.901377C25.0117 1.01858 23.8984 1.49607 22.1449 2.24806C20.3898 3.0007 18.0659 3.99842 15.5869 5.06446C10.629 7.19655 5.05491 9.59654 2.19987 10.8249C2.09251 10.8711 1.71791 10.9907 1.32031 11.3011C0.922717 11.6115 0.5 12.2547 0.5 12.9714C0.5 13.5493 0.775412 14.1234 1.12207 14.4662C1.46873 14.8089 1.83554 14.9783 2.14974 15.1065C3.28977 15.5716 6.82549 17.0185 7.49316 17.2917C7.72814 18.0115 9.00791 21.9263 9.30469 22.8858C9.50033 23.5189 9.68656 23.9154 9.92904 24.2302C10.0503 24.3875 10.1912 24.5254 10.362 24.6335C10.4302 24.6767 10.5051 24.7099 10.5807 24.7406L10.5853 24.7428C10.6027 24.7498 10.6177 24.7617 10.6354 24.7679C10.6688 24.7796 10.6911 24.781 10.7357 24.7907C10.9134 24.8481 11.0928 24.8841 11.2529 24.8841C11.9356 24.8841 12.3535 24.5081 12.3535 24.5081L12.3786 24.4899L15.89 21.4525L20.1488 25.4811C20.2087 25.5659 20.768 26.3333 22.0013 26.3333C22.7336 26.3333 23.3145 25.9659 23.6875 25.5746C24.0605 25.1832 24.2928 24.7721 24.3916 24.2552V24.2529C24.484 23.7645 28.4089 3.61524 28.4089 3.61524L28.402 3.64259C28.5169 3.11816 28.547 2.62976 28.4202 2.1478C28.2935 1.66584 27.9594 1.20438 27.5452 0.956064C27.1311 0.707802 26.7259 0.631716 26.3467 0.648447ZM26.1279 3.0866C26.1223 3.12065 26.1321 3.10353 26.1234 3.14356L26.1211 3.15724L26.1188 3.17091C26.1188 3.17091 22.2426 23.0624 22.0993 23.82C22.1098 23.7628 22.0618 23.8765 22.0127 23.9453C21.9432 23.8974 21.8008 23.8359 21.8008 23.8359L21.778 23.8109L15.9606 18.308L11.8477 21.8626L13.0713 16.9636C13.0713 16.9636 20.7202 9.0458 21.181 8.58497C21.552 8.2163 21.6299 8.08779 21.6299 7.96062C21.6299 7.79029 21.5411 7.66668 21.3428 7.66668C21.1643 7.66668 20.9242 7.84022 20.7959 7.92188C19.1239 8.98769 11.7838 13.2657 8.49349 15.1794C7.97061 14.9654 4.33794 13.4784 3.10677 12.9759C3.11609 12.9718 3.11302 12.9733 3.12272 12.9691C5.97851 11.7404 11.5502 9.34045 16.5075 7.20867C18.9861 6.14278 21.3118 5.14429 23.0654 4.39226C24.7921 3.65181 25.9918 3.14221 26.1279 3.0866Z"/>
    </symbol>
    <symbol id="microphone" viewBox="0 0 56 68">
        <path d="M39.5999 0.3125C31.178 0.3125 24.2765 7.11016 24.1124 15.4937C23.303 16.768 12.5679 33.6883 4.11865 42.1375L4.1624 42.1812C4.04756 42.2687 3.6374 42.5094 3.3749 43.1875C3.07412 43.9641 3.31475 45.2711 4.1624 46.1187L6.13115 48.0875L3.76865 50.45C1.35147 52.8672 0.27412 55.607 0.356152 58.1937C0.438183 60.7805 1.59756 63.1539 3.3749 64.8438C6.92412 68.2234 13.1257 69.0055 17.7249 64.4062L36.9312 45.2C40.6663 41.4648 44.7515 42.2359 47.2562 44.675C48.5085 45.8945 49.3179 47.5461 49.3562 49.3125C49.3944 51.0789 48.7218 53.0094 46.7749 54.9562L37.8937 63.8375C37.314 64.4172 37.314 65.3578 37.8937 65.9375C38.4733 66.5172 39.414 66.5172 39.9937 65.9375L48.8312 57.0562C51.2483 54.6391 52.3421 51.8664 52.2874 49.2687C52.2327 46.6711 51.0733 44.2867 49.3124 42.575C47.5515 40.8633 45.1179 39.8078 42.5312 39.775C39.9444 39.7422 37.2319 40.743 34.8749 43.1L15.6687 62.3062C12.0812 65.8937 7.96865 65.1172 5.43115 62.7C4.1624 61.4914 3.34209 59.8453 3.2874 58.1063C3.23272 56.3672 3.87803 54.4531 5.8249 52.5062L5.95615 52.4188L8.1874 50.1875L9.2374 51.1937C10.0741 52.0305 11.228 52.3477 12.0374 52.1125C12.7429 51.9102 12.989 51.4453 13.0874 51.325L13.1749 51.4125C21.4108 43.1711 38.6265 32.1078 39.9062 31.2875C48.2952 31.1234 55.0874 24.2273 55.0874 15.8C55.0874 7.27422 48.1202 0.3125 39.5999 0.3125ZM39.5999 3.2875C46.5288 3.2875 52.1124 8.86562 52.1124 15.8C52.1124 18.5727 51.221 21.1266 49.7062 23.1938L32.2062 5.69375C34.2733 4.17891 36.8272 3.2875 39.5999 3.2875ZM30.0624 7.70625L47.7374 25.3375C45.5554 27.2023 42.7116 28.3125 39.5999 28.3125C32.6655 28.3125 27.0874 22.7398 27.0874 15.8C27.0874 12.6992 28.2085 9.88828 30.0624 7.70625ZM24.6812 19.8687C26.1304 25.157 30.3194 29.3461 35.6187 30.7625C29.9147 34.525 18.0312 42.6023 11.2937 49.3125C11.2718 49.2852 11.2772 49.2961 11.2062 49.225L6.13115 44.1063C12.978 37.243 20.9679 25.5508 24.6812 19.8687ZM24.4624 29.1437C24.0413 29.1437 23.5983 29.3078 23.2812 29.625L19.5187 33.4312C18.8788 34.0711 18.8788 35.1102 19.5187 35.75L19.6499 35.8812C20.2843 36.5211 21.3288 36.5211 21.9687 35.8812L25.7749 32.075C26.4147 31.4406 26.4093 30.3961 25.7749 29.7563L25.5999 29.625C25.2827 29.3078 24.8835 29.1437 24.4624 29.1437Z"/>
    </symbol>
    <symbol id="alcohol" viewBox="0 0 63 63">
        <path d="M54.908 0.69047C53.2749 0.69047 51.6418 1.30813 50.4065 2.54344L47.9725 4.97742C47.5014 5.44852 47.449 6.19703 47.8521 6.73094L45.0046 9.57844C39.1997 15.3834 34.3579 17.1421 29.4951 18.7648C24.6376 20.3874 19.6754 21.8687 14.5772 26.9723L2.28161 39.2626C0.156455 41.3877 0.156455 44.8738 2.28161 47.0042L9.13864 53.8612L15.9957 60.713C18.1261 62.8434 21.6122 62.8434 23.7373 60.713L36.0276 48.4227C41.1311 43.3245 42.6125 38.3623 44.2299 33.5048C45.8526 28.642 47.6113 23.8002 53.4215 17.9953L56.269 15.1478C56.8029 15.5509 57.5514 15.4985 58.0225 15.0274L60.4565 12.5934C62.9323 10.1176 62.9323 6.06617 60.4565 3.59031L59.4096 2.54344C58.169 1.30813 56.5411 0.685235 54.908 0.69047ZM54.908 3.34953C55.8502 3.35477 56.7924 3.71594 57.52 4.43828L58.5616 5.48516C60.0115 6.93508 60.0115 9.24867 58.5616 10.6986L57.0855 12.1747L53.9554 9.04453C53.9187 9.00789 53.8768 8.97125 53.835 8.93985L50.82 5.92484L52.2961 4.43828C53.0236 3.71594 53.9658 3.34953 54.908 3.34953ZM31.4999 3.36C30.7618 3.36 30.1599 3.96195 30.1599 4.7C30.1599 5.43805 30.7618 6.04 31.4999 6.04C32.2379 6.04 32.8399 5.43805 32.8399 4.7C32.8399 3.96195 32.2379 3.36 31.4999 3.36ZM39.5399 7.38C38.8018 7.38 38.1999 7.98195 38.1999 8.72C38.1999 9.45805 38.8018 10.06 39.5399 10.06C40.2779 10.06 40.8799 9.45805 40.8799 8.72C40.8799 7.98195 40.2779 7.38 39.5399 7.38ZM49.7365 8.63625L54.3636 13.2634L51.5214 16.1005C49.5114 18.1157 47.9725 20.0472 46.7058 21.9263L41.0736 16.2941C42.9527 15.0274 44.8842 13.4885 46.8994 11.4785L49.7365 8.63625ZM38.739 17.7441L45.2558 24.2609C44.1095 26.2918 43.272 28.2442 42.5811 30.1181L35.3105 27.6894L32.8818 20.4188C34.7557 19.7279 36.7081 18.8904 38.739 17.7441ZM30.3536 21.3034L32.9812 29.1759C33.1121 29.5737 33.4261 29.8878 33.824 30.0187L41.6965 32.6463C41.6912 32.6463 41.6912 32.6516 41.6912 32.6516C40.0529 37.5719 38.8176 41.8484 34.138 46.5331L21.8477 58.8234C20.7433 59.9227 18.995 59.9227 17.8905 58.8234L4.17646 45.1094C3.07724 44.0049 3.07724 42.2566 4.17646 41.1522L16.4668 28.8619C21.1515 24.1823 25.428 22.947 30.3483 21.3087C30.3483 21.3087 30.3536 21.3087 30.3536 21.3034ZM56.9599 22.12C56.2218 22.12 55.6199 22.722 55.6199 23.46C55.6199 24.198 56.2218 24.8 56.9599 24.8C57.6979 24.8 58.2999 24.198 58.2999 23.46C58.2999 22.722 57.6979 22.12 56.9599 22.12ZM60.9799 27.48C60.2418 27.48 59.6399 28.082 59.6399 28.82C59.6399 29.558 60.2418 30.16 60.9799 30.16C61.7179 30.16 62.3199 29.558 62.3199 28.82C62.3199 28.082 61.7179 27.48 60.9799 27.48ZM54.2799 30.16C53.5418 30.16 52.9399 30.762 52.9399 31.5C52.9399 32.238 53.5418 32.84 54.2799 32.84C55.0179 32.84 55.6199 32.238 55.6199 31.5C55.6199 30.762 55.0179 30.16 54.2799 30.16ZM28.8199 31.5C27.3386 31.5 26.1399 32.6987 26.1399 34.18C26.1399 35.6613 27.3386 36.86 28.8199 36.86C30.3012 36.86 31.4999 35.6613 31.4999 34.18C31.4999 32.6987 30.3012 31.5 28.8199 31.5ZM18.5082 32.259C18.1575 32.2642 17.8277 32.4055 17.5765 32.6516L9.13864 41.0946C8.61521 41.618 8.61521 42.4712 9.13864 42.9947L20.0052 53.8612C20.5286 54.3794 21.3818 54.3794 21.9053 53.8612L30.3431 45.4182C30.8665 44.8948 30.8665 44.0468 30.3431 43.5234L19.4765 32.6516C19.22 32.4003 18.8693 32.259 18.5082 32.259ZM18.5239 35.4991L27.5008 44.4708L20.9526 51.0137L11.9809 42.0473L18.5239 35.4991Z"/>
    </symbol>
    <symbol id="feast" viewBox="0 0 62 61">
        <path d="M37.8399 0.156876L36.8784 1.11844L32.5168 5.48L37.8399 10.8031L43.1631 5.48L37.8399 0.156876ZM20.8399 3.44C20.4793 3.44004 20.1334 3.58333 19.8783 3.83838C19.6233 4.09342 19.48 4.43932 19.4799 4.8V11.6C19.48 11.9607 19.6233 12.3066 19.8783 12.5616C20.1334 12.8167 20.4793 12.96 20.8399 12.96H22.1999C23.8257 12.96 24.1793 13.4489 24.5268 14.2297C24.8743 15.0105 24.9199 16.1839 24.9199 17.04C24.9199 18.1503 24.7853 19.3177 24.5959 20.44C23.4004 20.0189 22.2532 19.7675 21.1906 19.76C19.9896 19.7514 18.7954 20.0886 17.942 20.942C17.5779 21.3061 17.3339 21.741 17.1451 22.2011L17.1212 22.1931L2.17447 60.0819L41.4153 46.6466L41.4073 46.6227C41.9111 46.4326 42.3845 46.1712 42.7779 45.778C43.7952 44.7607 44.071 43.2943 43.9201 41.8281C43.825 40.9038 43.5573 39.9275 43.171 38.9142C44.2448 38.8492 45.3868 38.8 46.6799 38.8C48.6187 38.8 50.453 39.0345 51.6445 39.4481C52.2402 39.655 52.6599 39.9083 52.8637 40.1016C53.0675 40.2948 53.0788 40.3509 53.0788 40.5V41.52C53.0789 41.8807 53.2222 42.2266 53.4772 42.4816C53.7323 42.7367 54.0782 42.88 54.4388 42.88H60.2799C60.4619 42.8801 60.6421 42.8436 60.8097 42.7728C60.9774 42.7019 61.1291 42.5982 61.2559 42.4676C61.3828 42.3371 61.4821 42.1824 61.548 42.0128C61.614 41.8432 61.6453 41.6621 61.6399 41.4802C61.6399 41.4802 61.5999 39.8042 61.6001 39.7855C61.6001 39.7846 61.6001 39.7837 61.6001 39.7828C61.625 36.6954 59.6803 34.3026 57.281 32.8314C54.8818 31.3602 51.9699 30.64 49.3707 30.64C45.0692 30.64 41.8696 31.7559 39.7285 32.8606C39.0534 31.9437 38.3095 31.0198 37.4973 30.1008C37.9823 29.946 38.4746 29.8019 38.9503 29.6731C39.9084 29.4137 40.8141 29.2011 41.5188 29.0436C42.2236 28.8861 42.6126 28.8185 42.9665 28.7195C44.0644 28.4118 45.5631 28.0357 46.9057 27.1391C48.2484 26.2424 49.3999 24.6297 49.3999 22.48C49.3999 21.8915 49.1146 21.5641 48.9271 21.12H49.3999C52.3074 21.12 54.8399 18.7724 54.8399 15.68V13.81C54.8399 13.81 54.8501 13.6247 54.9781 13.4169C55.106 13.209 55.2083 12.96 56.1999 12.96H57.5599C57.9206 12.96 58.2665 12.8167 58.5216 12.5616C58.7766 12.3066 58.9199 11.9607 58.9199 11.6V6.16266C58.9199 5.80197 58.7766 5.45607 58.5216 5.20103C58.2665 4.94599 57.9206 4.80269 57.5599 4.80266H55.3553C51.7406 4.79961 49.5079 6.47285 48.3135 8.06453C47.428 9.24421 47.1552 10.702 46.9456 11.9533C46.8536 12.5021 46.872 12.5613 46.8313 12.96H46.6799C44.3377 12.96 42.5025 13.809 41.386 15.1488C40.2696 16.4885 39.8799 18.1733 39.8799 19.76V21.6061C37.6509 22.341 35.0981 23.5343 32.902 25.6117C31.6074 24.5108 30.3207 23.5271 29.0584 22.7058C30.4523 20.2479 31.7199 16.9317 31.7199 12.96C31.7199 10.6178 30.9437 8.25266 29.3187 6.44156C27.6937 4.63046 25.2037 3.44 22.099 3.44H22.0963H22.0778H20.8399ZM37.8399 4.00313L39.3168 5.48L37.8399 6.95688L36.3631 5.48L37.8399 4.00313ZM9.27994 5.59688L8.31838 6.55844L3.95682 10.92L9.27994 16.2431L14.6031 10.92L9.27994 5.59688ZM22.1999 6.17859C24.5719 6.20573 26.1924 7.02991 27.2946 8.25844C28.4152 9.50734 28.9999 11.2222 28.9999 12.96C28.9999 15.7916 28.1754 18.1017 27.2149 20.092C27.3676 19.0497 27.6399 18.1279 27.6399 17.04C27.6399 16.1839 27.6856 14.6358 27.0131 13.1247C26.3406 11.6136 24.6541 10.24 22.1999 10.24V6.17859ZM55.3526 7.52266C55.3535 7.52266 55.3544 7.52266 55.3553 7.52266H56.1999V10.24C54.4716 10.24 53.2139 11.096 52.6618 11.9931C52.1097 12.8903 52.1199 13.81 52.1199 13.81V15.68C52.1199 17.3476 50.9125 18.4 49.3999 18.4H46.6799C46.4322 18.4 46.1891 18.4677 45.977 18.5958C45.7649 18.7239 45.5918 18.9075 45.4764 19.1268C45.361 19.3461 45.3077 19.5927 45.3223 19.84C45.3368 20.0874 45.4187 20.3261 45.559 20.5303C45.5595 20.531 45.6651 20.6647 45.6732 20.6737C45.6814 20.6829 45.6867 20.6893 45.6918 20.695C45.7021 20.7063 45.714 20.7181 45.729 20.7348C45.759 20.7684 45.8019 20.8184 45.8538 20.8809C45.9577 21.0059 46.0955 21.1833 46.2284 21.3856C46.4942 21.7902 46.6799 22.2977 46.6799 22.48C46.6799 23.782 46.2185 24.3256 45.3943 24.8759C44.5702 25.4263 43.3482 25.788 42.2334 26.1005C42.2785 26.0878 41.6509 26.2275 40.9238 26.39C40.1968 26.5525 39.2557 26.774 38.241 27.0488C36.683 27.4706 35.1323 28.1476 33.6935 28.8683C35.9711 26.0344 39.0983 24.4931 41.6065 23.7895C41.8923 23.7095 42.1441 23.5382 42.3234 23.3018C42.5028 23.0654 42.5999 22.7768 42.5999 22.48V19.76C42.5999 18.6267 42.8903 17.5915 43.4738 16.8913C44.0574 16.191 44.9422 15.68 46.6799 15.68H48.0399C48.3881 15.6798 48.7229 15.5461 48.9754 15.3064C49.2279 15.0667 49.3789 14.7394 49.3973 14.3917C49.3973 14.3917 49.4467 13.4864 49.6284 12.4022C49.8101 11.318 50.2173 10.054 50.4863 9.69547C50.4872 9.69547 50.4881 9.69547 50.489 9.69547C51.3349 8.56758 52.5002 7.52026 55.3526 7.52266ZM9.27994 9.44313L10.7568 10.92L9.27994 12.3969L7.80307 10.92L9.27994 9.44313ZM56.8799 21.12L53.4799 24.52L56.8799 27.92L60.2773 24.52L56.8799 21.12ZM3.83994 22.48L0.439941 25.88L3.83994 29.28L7.23729 25.88L3.83994 22.48ZM21.1693 22.48C21.8822 22.485 22.8671 22.7455 23.9982 23.2025C23.6093 24.6874 23.2346 25.7822 23.119 26.1323C23.0257 26.4152 23.0279 26.7208 23.1251 27.0023C23.2223 27.2838 23.4093 27.5256 23.6572 27.6906C23.9052 27.8556 24.2004 27.9346 24.4976 27.9156C24.7948 27.8966 25.0776 27.7806 25.3024 27.5853C25.4932 27.4192 25.8272 27.1077 26.434 26.4166C26.7582 26.0473 27.1362 25.5801 27.5337 25.0459C28.6917 25.7727 29.9003 26.6537 31.109 27.6623C30.933 27.9028 30.7492 28.1295 30.5831 28.3875L27.8578 32.6242C27.6889 32.8885 27.6167 33.2031 27.6532 33.5146C27.6897 33.8261 27.8327 34.1154 28.058 34.3335C28.2833 34.5517 28.5771 34.6852 28.8897 34.7116C29.2022 34.738 29.5142 34.6556 29.7729 34.4783L33.8635 31.6547C34.1035 31.489 34.4175 31.3176 34.772 31.1473C35.7475 32.198 36.636 33.2571 37.4123 34.2977C36.9775 34.6319 36.6377 34.9272 36.5729 34.9909C36.572 34.9918 36.5711 34.9927 36.5703 34.9936L33.4837 38.043C33.2615 38.2626 33.1217 38.552 33.0878 38.8626C33.0539 39.1732 33.1279 39.486 33.2974 39.7484C33.467 40.0108 33.7217 40.2068 34.0188 40.3036C34.3158 40.4003 34.6371 40.3918 34.9287 40.2795C34.9287 40.2795 36.7139 39.6018 40.3342 39.1639C40.8331 40.3027 41.1353 41.3227 41.216 42.107C41.3164 43.0824 41.1227 43.5869 40.8548 43.8548C40.7501 43.9595 40.6 44.0469 40.4112 44.1152L40.2731 44.163C40.0317 44.226 39.7267 44.2561 39.3221 44.232C38.4733 44.1814 37.3053 43.8629 35.9832 43.2625C33.3391 42.0617 30.0868 39.7653 27.021 36.6989C23.9552 33.6324 21.6584 30.381 20.4574 27.7367C19.857 26.4146 19.5386 25.2438 19.4879 24.3952C19.4627 23.9734 19.4961 23.6546 19.5649 23.4097C19.573 23.3812 19.5852 23.3619 19.5942 23.3353C19.6633 23.1311 19.755 22.9753 19.8651 22.8652C20.0888 22.6415 20.4554 22.4749 21.1693 22.48ZM17.6896 28.1644C17.7841 28.3964 17.8718 28.6266 17.9792 28.863C19.3683 31.9216 21.8371 35.3605 25.0979 38.622C28.3589 41.8837 31.7983 44.3518 34.857 45.7408C34.9802 45.7967 35.0989 45.8397 35.2209 45.8922L6.86541 55.6008L17.6896 28.1644ZM49.3707 33.36C51.4418 33.36 53.982 33.9988 55.8599 35.1503C57.7379 36.3018 58.896 37.7953 58.8801 39.7589C58.879 39.8636 58.8851 39.9941 58.8881 40.16H55.6474C55.5422 39.3861 55.262 38.6266 54.7363 38.128C54.1228 37.546 53.3683 37.1691 52.5343 36.8795C50.8663 36.3004 48.8212 36.08 46.6799 36.08C43.1798 36.08 40.7852 36.4386 38.7085 36.7786C39.0205 36.4807 42.3746 33.36 49.3707 33.36ZM47.3599 49.1169L46.3984 50.0784L42.0368 54.44L47.3599 59.7631L52.6831 54.44L47.3599 49.1169ZM47.3599 52.9631L48.8368 54.44L47.3599 55.9169L45.8831 54.44L47.3599 52.9631Z"/>
    </symbol>
    <symbol id="card" viewBox="0 0 68 65">
        <path d="M46.58 0.8475L45.815 1.995L33.745 19.3775L23.12 22.5225L23.0775 22.565H23.035C21.6909 23.0697 20.6496 23.9516 19.8475 25.0725L19.805 25.115V25.1575L10.625 39.31L10.285 38.205L1.35996 40.8825L0.0849609 41.3075L0.467461 42.5825L6.58746 63.11L6.96996 64.4275L8.28746 64.045L15.895 61.7075L17.2125 61.325L16.7875 60.05L16.0225 57.4575L26.69 55.0775C29.9678 54.3338 32.9534 52.5647 35.0625 49.85L35.5725 49.2125L40.715 52.825L41.82 53.6325L42.585 52.485L67.235 16.87L68 15.765L66.8525 14.9575L47.685 1.655L46.58 0.8475ZM47.26 4.63L64.2175 16.445L54.485 30.5125C55.7334 26.5334 53.8209 21.7681 49.7675 18.9525C49.7568 18.9472 49.7781 18.9153 49.7675 18.91C49.7568 18.8994 49.7356 18.9206 49.725 18.91C47.3609 17.2419 44.5506 16.5459 41.99 16.785C40.5237 16.9231 39.1478 17.3906 37.9525 18.145L47.26 4.63ZM52.955 12.705C52.2112 12.6997 51.494 13.0662 51.0425 13.725C50.32 14.7769 50.5856 16.19 51.6375 16.9125C52.6893 17.635 54.145 17.3694 54.8675 16.3175C55.59 15.2656 55.3243 13.8525 54.2725 13.13C53.8793 12.8591 53.4012 12.7103 52.955 12.705ZM42.33 19.4625C44.2106 19.2925 46.309 19.8078 48.1525 21.12L48.195 21.1625C52.0465 23.8134 53.194 28.3078 51.255 31.1075H51.2125C50.235 32.6163 48.604 33.4344 46.58 33.53C46.649 31.9734 46.0965 30.4222 44.88 29.28C44.8693 29.2694 44.8481 29.2906 44.8375 29.28C42.9834 27.4472 40.0934 27.1391 37.9525 28.5575C36.6562 26.2253 36.5606 23.6912 37.825 21.885C38.7918 20.4878 40.4493 19.6325 42.33 19.4625ZM31.3225 22.9475L24.82 33.19L24.0975 34.38L25.2875 35.06L29.6225 37.6525L30.43 38.1625L31.195 37.525L38.08 31.9575C38.4306 31.8459 38.7175 31.6016 38.8875 31.2775L39.2275 31.0225C40.3112 30.1194 41.9687 30.1938 42.9675 31.1925V31.235H43.01C44.1256 32.255 44.2265 33.8488 43.265 35.1025L32.9375 48.15C31.2375 50.3334 28.8043 51.8263 26.095 52.4425L15.2575 54.865L11.4325 42.03L11.8575 41.86L12.325 41.69L12.58 41.3075L22.0575 26.6875C22.594 25.9331 23.1465 25.4709 23.9275 25.1575C23.9593 25.1469 23.9806 25.1256 24.0125 25.115L31.3225 22.9475ZM34.425 23.1175C33.899 25.4816 34.4303 28.0475 35.785 30.3L30.2175 34.8475L27.88 33.445L34.425 23.1175ZM51.765 34.465L41.14 49.85L37.23 47.0875L45.39 36.8025V36.76H45.4325C45.56 36.5953 45.6662 36.4253 45.7725 36.25C47.9825 36.3138 50.1128 35.7453 51.765 34.465ZM8.45746 41.5625L13.8125 59.54L8.79746 61.07L3.44246 43.135L8.45746 41.5625Z"/>
    </symbol>
    <symbol id="dresscode" viewBox="0 0 80 78">
        <path d="M40 0.599976C34.45 0.599976 31.0188 1.83123 30.1 2.19998C29.9375 2.24373 29.7875 2.31248 29.65 2.39998C29.6313 2.39998 29.6188 2.39998 29.6 2.39998C29.5688 2.41248 29.5312 2.43123 29.5 2.44998C29.4813 2.46873 29.4688 2.48123 29.45 2.49998C29.4188 2.51248 29.3813 2.53123 29.35 2.54998C29.3312 2.56873 29.3188 2.58123 29.3 2.59998C29.2438 2.64373 29.1938 2.69373 29.15 2.74998C29.1313 2.78123 29.1125 2.81873 29.1 2.84998C29.0812 2.86873 29.0688 2.88123 29.05 2.89998C29.0312 2.93123 29.0125 2.96873 29 2.99998L26.15 7.19998L18.85 9.54998C18.75 9.57498 18.6438 9.60623 18.55 9.64998C17.1313 10.1125 15.4563 11.1625 13.6 13.05C11.575 15.1125 9.45 18.1125 7.9 22.3C6.7 25.5375 4.7625 30.6187 3.1 35.25C2.26875 37.5687 1.50625 39.7375 0.95 41.6C0.39375 43.4625 0 44.8625 0 46.1V69.4C0 70.2812 0.71875 71 1.6 71H12.8C13.6812 71 14.4 70.2812 14.4 69.4V47.05C14.4 47.0562 14.4 47.05 14.4 47C14.4125 46.925 14.4563 46.7375 14.55 46.5C14.7 46.1187 14.9563 45.625 15.25 45.05C15.8313 43.8937 16.6438 42.4562 17.45 41.1C17.525 40.9687 17.525 40.9812 17.6 40.85V75.8C17.6 76.6812 18.3188 77.4 19.2 77.4H60.8C61.6813 77.4 62.4 76.6812 62.4 75.8L62.3 43.95V43.9L62.35 40.75C62.4562 40.925 62.4438 40.9187 62.55 41.1C63.3563 42.4562 64.1688 43.8937 64.75 45.05C65.0438 45.625 65.3 46.1187 65.45 46.5C65.5625 46.7875 65.5938 47.025 65.6 47.05V69.4C65.6 70.2812 66.3187 71 67.2 71H78.4C79.2812 71 80 70.2812 80 69.4V46.1C80 44.8625 79.6063 43.4625 79.05 41.6C78.4938 39.7375 77.7313 37.5687 76.9 35.25C75.2375 30.6187 73.3 25.5375 72.1 22.3C70.55 18.1125 68.425 15.1125 66.4 13.05C64.525 11.1437 62.8312 10.1 61.4 9.64998C61.3188 9.61248 61.2375 9.57498 61.15 9.54998L53.85 7.19998L51.05 3.04998C51.0188 2.99998 50.9875 2.94998 50.95 2.89998C50.9188 2.86248 50.8875 2.83123 50.85 2.79998C50.85 2.78123 50.85 2.76873 50.85 2.74998C50.7 2.58123 50.5125 2.44373 50.3 2.34998C50.3 2.34998 50.2562 2.29998 50.25 2.29998C50.1562 2.25623 50.05 2.22498 49.95 2.19998C49.1125 1.86248 45.6562 0.599976 40 0.599976ZM40 3.79998C43.8812 3.79998 46.3563 4.36873 47.7 4.79998C47.4688 5.61248 47.1063 6.66873 46.45 7.79998C45.225 9.91248 43.4062 11.8 40 11.8C36.5938 11.8 34.775 9.91248 33.55 7.79998C32.8937 6.66873 32.5312 5.61248 32.3 4.79998C33.6437 4.36873 36.1188 3.79998 40 3.79998ZM29.95 7.39998C30.2188 8.06873 30.3813 8.67498 30.8 9.39998C31.7812 11.0937 33.325 12.9125 35.5 14L31.25 18.25L28.95 8.94998L29.95 7.39998ZM50.05 7.39998L51.05 8.94998L48.75 18.25L44.5 14C46.675 12.9125 48.2188 11.0937 49.2 9.39998C49.6188 8.67498 49.7812 8.06873 50.05 7.39998ZM26.05 10.65L28.85 21.8C28.9875 22.3687 29.4188 22.8187 29.9813 22.975C30.5375 23.125 31.1438 22.9687 31.55 22.55L39.2 14.9C39.4688 14.9187 39.7188 15 40 15C40.2812 15 40.5312 14.9187 40.8 14.9L48.45 22.55C48.8563 22.9687 49.4625 23.125 50.0187 22.975C50.5812 22.8187 51.0125 22.3687 51.15 21.8L53.95 10.65L58.9 12.2C58.6875 13.2125 58.1938 15.4187 57.85 19.65C57.475 24.2812 57.525 29.9437 58.95 34.9C58.9625 34.95 58.9813 35 59 35.05C59.0063 35.0625 58.9938 35.0875 59 35.1C59.025 35.2562 59.075 35.4062 59.15 35.55C59.175 35.6312 59.175 35.7187 59.2 35.8L59.1 43.9L59.2 74.2H20.8V36C23.0938 31.6625 23.0125 25.6687 22.5 20.5C22.0438 15.9375 21.4 13.2812 21.15 12.2L26.05 10.65ZM18.2 13.45C18.5625 15.125 19.025 17.5375 19.35 20.8C19.7875 25.2062 19.6812 30.2875 18.5 33.55C18.2875 33.7062 18.1125 33.9125 18 34.15C18 34.15 16.35 36.7187 14.7 39.5C13.875 40.8937 13.0375 42.3312 12.4 43.6C12.0813 44.2375 11.8062 44.8125 11.6 45.35C11.3938 45.8875 11.2 46.3062 11.2 47V67.8H3.2V46.1C3.2 45.7875 3.46875 44.3187 4 42.55C4.53125 40.7812 5.28125 38.5875 6.1 36.3C7.74375 31.725 9.68125 26.7375 10.9 23.45C12.3 19.6812 14.1938 17.0375 15.9 15.3C16.7125 14.475 17.5375 13.8937 18.2 13.45ZM61.85 13.45C62.5063 13.8875 63.3 14.4875 64.1 15.3C65.8063 17.0375 67.7 19.6812 69.1 23.45C70.3187 26.7375 72.2562 31.725 73.9 36.3C74.7188 38.5875 75.4688 40.7812 76 42.55C76.5312 44.3187 76.8 45.7875 76.8 46.1V67.8H68.8V47C68.8 46.3062 68.6062 45.8875 68.4 45.35C68.1937 44.8125 67.9188 44.2375 67.6 43.6C66.9625 42.3312 66.125 40.8937 65.3 39.5C63.65 36.7187 62 34.15 62 34.15C61.9562 34.0625 61.9062 33.9812 61.85 33.9C60.6688 29.6187 60.6938 24.2875 61.05 19.9C61.2812 17.0812 61.5812 14.975 61.85 13.45Z"/>
    </symbol>
    <symbol id="disk" viewBox="0 0 80 80">
       <path d="M40.0001 0.450073C18.1786 0.450073 0.450195 18.1784 0.450195 40C0.450195 61.8215 18.1786 79.5499 40.0001 79.5499C61.8217 79.5499 79.55 61.8215 79.55 40C79.55 18.1784 61.8217 0.450073 40.0001 0.450073ZM40.0001 3.86992C44.4527 3.86992 48.7117 4.67865 52.6482 6.14757L44.4815 25.2019C43.0614 24.7703 41.5584 24.5301 40.0001 24.5301C31.4775 24.5301 24.5302 31.4774 24.5302 40C24.5302 41.5583 24.7704 43.0613 25.2021 44.4814L6.1477 52.648C4.67877 48.7116 3.87004 44.4526 3.87004 40C3.87004 20.0256 20.0257 3.86992 40.0001 3.86992ZM55.7791 7.52828C63.0499 11.0638 68.9363 16.9502 72.4718 24.221L53.441 32.3776C52.0598 29.9545 50.0456 27.9403 47.6225 26.5591L55.7791 7.52828ZM73.8525 27.3519C75.3215 31.2884 76.1302 35.5474 76.1302 40C76.1302 59.9744 59.9746 76.1301 40.0001 76.1301C35.5475 76.1301 31.2885 75.3213 27.3521 73.8524L35.5187 54.798C36.9388 55.2297 38.4418 55.4699 40.0001 55.4699C48.5227 55.4699 55.47 48.5226 55.47 40C55.47 38.4417 55.2298 36.9387 54.7982 35.5186L73.8525 27.3519ZM40.0001 27.9499C46.6754 27.9499 52.0502 33.3247 52.0502 40C52.0502 46.6753 46.6754 52.0501 40.0001 52.0501C33.3248 52.0501 27.95 46.6753 27.95 40C27.95 33.3247 33.3248 27.9499 40.0001 27.9499ZM40.0001 34.84C37.1501 34.84 34.8401 37.15 34.8401 40C34.8401 42.85 37.1501 45.16 40.0001 45.16C42.8502 45.16 45.1601 42.85 45.1601 40C45.1601 37.15 42.8502 34.84 40.0001 34.84ZM26.5593 47.6224C27.9404 50.0455 29.9546 52.0597 32.3777 53.4409L24.2211 72.4717C16.9503 68.9362 11.0639 63.0498 7.5284 55.779L26.5593 47.6224Z"/>
    </symbol>
    <symbol id="dancer" viewBox="0 0 74 74">
        <path d="M69.0999 0.899958C66.9374 0.806208 64.9124 2.24371 64.3499 4.39996L62.1499 12.95L56.1499 21.6L46.5999 23.75C44.9811 24.1187 43.4999 24.9562 42.3999 26.2L35.7999 33.55C34.9624 34.4812 34.3249 35.6375 33.9999 36.85L31.7499 45.35C31.1374 47.6312 32.4749 50.0187 34.7499 50.65C36.9999 51.275 39.3749 49.9375 40.0499 47.7L42.2999 40.25L45.8499 36.7C45.8186 37.6625 46.0561 38.3 45.8499 39.3C45.4124 41.4562 44.7499 43.25 44.7499 43.25L38.5499 55.2C38.2124 55.85 37.9499 56.5437 37.7999 57.25L35.5499 68.1C34.9311 71.0375 37.1999 73.9 40.1999 73.9H40.6999C42.9624 73.9 44.9499 72.2625 45.3999 70.05L47.4999 59.7L52.8499 50.1L57.1999 55.75L58.7499 69.65C59.0186 72.0562 61.0811 73.9 63.4999 73.9C66.3061 73.9 68.5374 71.3937 68.2499 68.6L66.7499 53.8C66.6561 52.9 66.3874 52.0187 65.9999 51.2L61.4499 41.6C61.7936 40.65 63.4999 35.5375 62.8999 29.8L70.3999 17.15C70.4624 17.0375 70.5124 16.925 70.5499 16.8L73.3999 6.84996C74.1249 4.32496 72.5999 1.68746 70.0499 1.04996C69.7436 0.974958 69.4061 0.912459 69.0999 0.899958ZM27.7999 1.39996C27.2124 1.41246 26.6124 1.53746 26.0499 1.79996C23.9436 2.77496 22.9374 5.24371 23.7999 7.39996L26.5999 14.5L22.0499 22.6L14.3999 23.65L9.59989 18.15L9.84989 15.95C10.1374 19.65 13.2311 22.6 16.9999 22.6C20.9561 22.6 24.1999 19.3562 24.1999 15.4C24.1999 11.4437 20.9561 8.19996 16.9999 8.19996C13.8124 8.19996 11.0874 10.3125 10.1499 13.2L10.5999 9.44996C10.8936 6.94996 8.96239 4.68121 6.44989 4.54996H6.09989C3.78739 4.43121 1.74364 6.14371 1.49988 8.44996L0.349885 19.2C0.187386 20.7125 0.631135 22.1875 1.54989 23.4L9.29989 33.65L6.49989 39.85C5.36239 42.3562 4.91239 45.1125 5.19989 47.85L7.44989 69.35C7.71239 71.85 9.83739 73.8 12.3499 73.8C15.2124 73.8 17.4874 71.3062 17.2499 68.45L15.6499 49.2L15.8499 49.05L20.8499 56.05L18.2999 68C17.6624 70.9562 19.9749 73.8 22.9999 73.8C25.1749 73.8 27.0561 72.3125 27.5999 70.2L30.9999 57.15C31.3999 55.6 31.1999 53.9687 30.4499 52.55L25.0999 42.4L27.6499 31L35.3499 18.1C36.1811 16.7062 36.3561 15.0062 35.7499 13.5L31.9499 4.14996C31.4874 2.99371 30.5811 2.12496 29.4999 1.69996C28.9624 1.48746 28.3874 1.38746 27.7999 1.39996ZM68.6499 4.09996C68.8374 4.07496 69.0499 4.09996 69.2499 4.14996C70.0811 4.35621 70.5374 5.17496 70.2999 5.99996L67.4499 15.9L59.9499 28.55C59.7499 28.8625 59.6561 29.2312 59.6999 29.6C60.4499 34.95 58.2499 41.2 58.2499 41.2C58.0936 41.6062 58.1124 42.0562 58.2999 42.45L63.0999 52.55C63.3311 53.0437 63.4936 53.6062 63.5499 54.15L65.0499 68.95C65.1499 69.9062 64.4624 70.7 63.4999 70.7C62.6811 70.7 62.0436 70.1125 61.9499 69.3L60.2999 54.9C60.2749 54.6125 60.1686 54.3375 59.9999 54.1L53.9499 46.25C53.6311 45.8062 53.1061 45.55 52.5561 45.5812C52.0124 45.6125 51.5186 45.9187 51.2499 46.4L44.5999 58.3C44.5249 58.4437 44.4749 58.5937 44.4499 58.75L42.2499 69.4C42.0999 70.1437 41.4561 70.7 40.6999 70.7H40.1999C39.1624 70.7 38.4374 69.8187 38.6499 68.8L40.9499 57.9C41.0436 57.4687 41.1999 57.0312 41.3999 56.65L47.6999 44.5C47.7374 44.4375 47.7686 44.3687 47.7999 44.3C47.7999 44.3 48.5124 42.3562 48.9999 39.95C49.4874 37.5437 49.9499 34.7312 48.7999 32.35C48.5749 31.8875 48.1436 31.5625 47.6374 31.475C47.1374 31.3875 46.6186 31.5437 46.2499 31.9L39.7999 38.2C39.6061 38.3937 39.4686 38.6375 39.3999 38.9L36.9999 46.8C36.8186 47.4062 36.2061 47.7187 35.5999 47.55C34.9874 47.3812 34.6811 46.7687 34.8499 46.15L37.0999 37.65C37.2936 36.925 37.6436 36.2625 38.1499 35.7L44.7999 28.35C44.7999 28.3312 44.7999 28.3187 44.7999 28.3C45.4561 27.5625 46.3311 27.0687 47.2999 26.85L57.4499 24.55C57.8561 24.4687 58.2124 24.2375 58.4499 23.9L64.9499 14.5C65.0686 14.3312 65.1499 14.15 65.1999 13.95L67.4499 5.19996C67.6061 4.59371 68.0811 4.18121 68.6499 4.09996ZM27.8999 4.59996C28.3749 4.58746 28.7999 4.86246 28.9999 5.34996L32.7499 14.7C32.9811 15.2812 32.9186 15.9125 32.5999 16.45L24.7499 29.6C24.6624 29.7375 24.5936 29.8875 24.5499 30.05L21.7999 42.25C21.7186 42.625 21.7686 43.0125 21.9499 43.35L27.6499 54.05C28.0249 54.7562 28.0999 55.575 27.8999 56.35L24.4999 69.4C24.3124 70.1125 23.7374 70.6 22.9999 70.6C21.9436 70.6 21.1749 69.6812 21.3999 68.65L24.1499 56.05C24.2436 55.6187 24.1499 55.1625 23.8999 54.8L17.4999 45.85C17.2499 45.5 16.8686 45.2687 16.4499 45.2062C16.0249 45.1375 15.5936 45.2437 15.2499 45.5L12.9999 47.25C12.5749 47.5875 12.3499 48.1125 12.3999 48.65L14.0999 68.7C14.1874 69.7375 13.3874 70.6 12.3499 70.6C11.4499 70.6 10.6936 69.95 10.5999 69.05L8.39989 47.5C8.17489 45.325 8.49364 43.1375 9.39989 41.15L12.5999 34.1C12.8436 33.5812 12.7811 32.9687 12.4499 32.5L4.09989 21.5C3.67489 20.9375 3.47488 20.2 3.54989 19.5L4.69989 8.79996C4.76864 8.15621 5.25613 7.71871 5.89989 7.74996H6.29989C7.01239 7.78746 7.48113 8.39371 7.39989 9.09996L6.29989 18.45C6.24989 18.9062 6.39364 19.3625 6.69989 19.7L12.5999 26.4C12.9561 26.8187 13.5061 27.0312 14.0499 26.95L23.2999 25.65C23.7874 25.575 24.2124 25.2812 24.4499 24.85L29.7999 15.35C30.0311 14.9375 30.0686 14.4437 29.8999 14L26.7999 6.19996C26.5561 5.59371 26.8124 4.97496 27.3999 4.69996C27.5561 4.62496 27.7436 4.60621 27.8999 4.59996ZM48.9999 8.19996C45.0436 8.19996 41.7999 11.4437 41.7999 15.4C41.7999 19.3562 45.0436 22.6 48.9999 22.6C52.9561 22.6 56.1999 19.3562 56.1999 15.4C56.1999 11.4437 52.9561 8.19996 48.9999 8.19996ZM16.9999 11.4C19.2249 11.4 20.9999 13.175 20.9999 15.4C20.9999 17.625 19.2249 19.4 16.9999 19.4C14.7749 19.4 12.9999 17.625 12.9999 15.4C12.9999 13.175 14.7749 11.4 16.9999 11.4ZM48.9999 11.4C51.2249 11.4 52.9999 13.175 52.9999 15.4C52.9999 17.625 51.2249 19.4 48.9999 19.4C46.7749 19.4 44.9999 17.625 44.9999 15.4C44.9999 13.175 46.7749 11.4 48.9999 11.4Z"/>
    </symbol>
    <symbol id="darts" viewBox="0 0 80 80">
        <path d="M39.9999 0.439941C18.1869 0.439941 0.439941 18.1869 0.439941 39.9999C0.439941 61.813 18.1869 79.5599 39.9999 79.5599C61.813 79.5599 79.5599 61.813 79.5599 39.9999C79.5599 32.0931 77.2201 24.7255 73.2074 18.5369L71.6721 20.0721L70.6912 21.0531C74.1105 26.5691 76.1199 33.046 76.1199 39.9999C76.1199 59.9175 59.9175 76.1199 39.9999 76.1199C20.0823 76.1199 3.87994 59.9175 3.87994 39.9999C3.87994 20.0823 20.0823 3.87994 39.9999 3.87994C48.4509 3.87994 56.2029 6.83394 62.3599 11.7174V15.2078L58.1708 19.3969C53.3198 15.1071 46.9692 12.4799 39.9999 12.4799C24.8261 12.4799 12.4799 24.8261 12.4799 39.9999C12.4799 55.1738 24.8261 67.5199 39.9999 67.5199C55.1738 67.5199 67.5199 55.1738 67.5199 39.9999C67.5199 34.2741 65.7578 28.9518 62.753 24.5435L60.2603 27.0361C62.6649 30.784 64.0799 35.2252 64.0799 39.9999C64.0799 53.2783 53.2783 64.0799 39.9999 64.0799C26.7215 64.0799 15.9199 53.2783 15.9199 39.9999C15.9199 26.7215 26.7215 15.9199 39.9999 15.9199C46.0222 15.9199 51.5155 18.1589 55.7386 21.8291L49.638 27.9297C46.9915 25.807 43.649 24.5199 39.9999 24.5199C31.4653 24.5199 24.5199 31.4653 24.5199 39.9999C24.5199 48.5346 31.4653 55.4799 39.9999 55.4799C48.5346 55.4799 55.4799 48.5346 55.4799 39.9999C55.4799 37.6143 54.9214 35.3643 53.9548 33.345L51.3311 35.9653C51.7817 37.2278 52.0399 38.5844 52.0399 39.9999C52.0399 46.6391 46.6391 52.0399 39.9999 52.0399C33.3607 52.0399 27.9599 46.6391 27.9599 39.9999C27.9599 33.3607 33.3607 27.9599 39.9999 27.9599C42.7003 27.9599 45.186 28.8647 47.1957 30.372L40.8868 36.6809C40.5977 36.6021 40.2996 36.5615 39.9999 36.5599C39.0876 36.5599 38.2126 36.9224 37.5675 37.5675C36.9224 38.2126 36.5599 39.0876 36.5599 39.9999C36.5599 40.9123 36.9224 41.7873 37.5675 42.4324C38.2126 43.0775 39.0876 43.4399 39.9999 43.4399C40.9123 43.4399 41.7873 43.0775 42.4324 42.4324C43.0775 41.7873 43.4399 40.9123 43.4399 39.9999C43.4398 39.6993 43.4003 39.4 43.3224 39.1097L64.7921 17.6399H69.2399L77.8399 9.03994H70.9599V2.15994L64.2983 8.82158C57.5867 3.57781 49.1578 0.439941 39.9999 0.439941Z"/>
    </symbol>
    <symbol id="check_mini" viewBox="0 0 14 14">
        <path d="M6.67965 0.956991C3.09762 0.855429 0.105429 3.69137 0.00386571 7.2734C-0.0976963 10.8554 2.73824 13.8515 6.32027 13.9531C9.9023 14.0507 12.8984 11.2187 13 7.63277C13.0195 6.88277 12.9062 6.16012 12.6875 5.48433L11.8632 6.26168C11.9609 6.69527 12.0117 7.14449 12 7.60933C11.914 10.6406 9.37887 13.0351 6.34762 12.9531C3.31637 12.8671 0.917929 10.332 0.99996 7.30074C1.0859 4.26949 3.62105 1.87105 6.6523 1.95308C7.64449 1.98433 8.56637 2.2773 9.35933 2.76558L10.1093 2.05465C9.12496 1.3984 7.95308 0.992148 6.67965 0.956991ZM11.5 2.79293L5.49996 8.79293L3.85152 7.1484L3.49996 6.79293L2.79293 7.49996L3.1484 7.85152L5.49996 10.207L12.207 3.49996L11.5 2.79293Z"/>
    </symbol>
    <symbol id="chat_bot" viewBox="0 0 32 32">
        <path d="M8.32008 0C7.26763 0 6.40008 0.866833 6.40008 1.92V14.08H7.68008V1.92C7.68008 1.55877 7.95941 1.28 8.32008 1.28H30.0801C30.4407 1.28 30.7201 1.55877 30.7201 1.92V30.08C30.7201 30.4403 30.4404 30.72 30.0801 30.72H8.32008C7.9598 30.72 7.68008 30.4403 7.68008 30.08V17.92H6.40008V30.08C6.40008 31.1328 7.26724 32 8.32008 32H30.0801C31.1329 32 32.0001 31.1328 32.0001 30.08V1.92C32.0001 0.866833 31.1325 0 30.0801 0H8.32008ZM14.1076 8.38375C13.9804 8.38403 13.8561 8.42221 13.7507 8.49342C13.6453 8.56463 13.5635 8.66563 13.5157 8.78354C13.468 8.90145 13.4565 9.03091 13.4826 9.15541C13.5088 9.2799 13.5714 9.39378 13.6626 9.4825L19.5388 15.36H0.640082C0.555274 15.3588 0.471074 15.3745 0.392374 15.4061C0.313675 15.4377 0.242045 15.4847 0.181649 15.5442C0.121252 15.6038 0.0732929 15.6747 0.0405584 15.753C0.00782388 15.8312 -0.0090332 15.9152 -0.0090332 16C-0.0090332 16.0848 0.00782388 16.1688 0.0405584 16.247C0.0732929 16.3253 0.121252 16.3962 0.181649 16.4558C0.242045 16.5153 0.313675 16.5623 0.392374 16.5939C0.471074 16.6255 0.555274 16.6412 0.640082 16.64H19.5388L13.6613 22.5175C13.5999 22.5765 13.5509 22.6471 13.5171 22.7253C13.4833 22.8034 13.4655 22.8875 13.4646 22.9727C13.4637 23.0578 13.4799 23.1423 13.512 23.2211C13.5442 23.3 13.5918 23.3716 13.652 23.4318C13.7122 23.492 13.7839 23.5396 13.8627 23.5718C13.9415 23.604 14.026 23.6201 14.1111 23.6192C14.1963 23.6184 14.2804 23.6005 14.3586 23.5667C14.4367 23.533 14.5074 23.4839 14.5663 23.4225L21.9888 16L14.5676 8.5775C14.5078 8.51604 14.4363 8.46722 14.3572 8.43394C14.2782 8.40065 14.1933 8.38359 14.1076 8.38375Z"/>
    </symbol>
    <symbol id="crowd" viewBox="0 0 39 37">
        <path d="M29.284 0.459993C27.7427 0.488083 26.5044 0.936122 25.6613 1.74925C24.8182 2.56238 24.425 3.69134 24.3961 4.8755C24.3961 4.87603 24.3961 4.87657 24.3961 4.8771C24.3774 5.64871 24.5373 6.34492 24.7212 7.11128C24.5096 7.43052 24.3606 7.8179 24.4217 8.33007C24.4217 8.3306 24.4217 8.33114 24.4217 8.33167C24.4925 8.92002 24.655 9.37299 24.9246 9.71702C25.0481 9.87462 25.229 9.88636 25.3874 9.98128C25.5548 10.5342 25.7827 11.059 26.1017 11.4787C26.3057 11.7472 26.5147 11.9869 26.7055 12.1818C26.7513 12.2286 26.807 12.2565 26.8465 12.2971C26.8498 12.7136 26.8513 13.1045 26.8208 13.5367C26.7219 13.7527 26.4183 14.0126 25.767 14.2815C25.3988 14.4335 24.9576 14.585 24.4906 14.7491C24.5153 14.5264 24.5338 14.2913 24.537 14.0284C24.537 14.0279 24.537 14.0274 24.537 14.0268C24.546 13.2528 24.42 12.4308 23.9861 11.7062C23.5838 11.0344 22.8474 10.5247 21.9281 10.3352C21.3441 9.7519 20.5232 9.47999 19.5994 9.47999C19.5946 9.47995 19.5898 9.47995 19.585 9.47999C18.0437 9.50809 16.8054 9.95612 15.9622 10.7692C15.1191 11.5824 14.7276 12.7113 14.6986 13.8955C14.6986 13.896 14.6986 13.8966 14.6986 13.8971C14.6916 14.1873 14.7165 14.4661 14.7515 14.7427C14.1939 14.5529 13.6513 14.3815 13.2028 14.2126C12.5295 13.959 12.2121 13.6958 12.1329 13.5367C12.1029 13.1069 12.1038 12.7175 12.1073 12.3019C12.147 12.2614 12.2022 12.2334 12.2482 12.1866C12.4397 11.9919 12.6486 11.7535 12.8536 11.4851C13.174 11.0657 13.4028 10.5394 13.5711 9.98609C13.7307 9.89099 13.9132 9.88017 14.0372 9.72183C14.3066 9.37774 14.4676 8.92406 14.5385 8.33648V8.33488C14.6001 7.82065 14.4503 7.42998 14.2358 7.10968C14.39 6.53199 14.5436 5.90243 14.5545 5.01323C14.5635 4.23915 14.4375 3.41558 14.0035 2.69097C13.6013 2.01923 12.8649 1.50951 11.9455 1.32003C11.3618 0.736884 10.542 0.464797 9.61846 0.464797C9.61312 0.464745 9.60778 0.464745 9.60244 0.464797C8.06115 0.49334 6.82425 0.94085 5.98131 1.75406C5.13837 2.56726 4.74548 3.69634 4.71607 4.88031C4.71607 4.88084 4.71607 4.88137 4.71607 4.88191C4.69742 5.65351 4.85734 6.34973 5.04119 7.11609C4.82955 7.43533 4.68059 7.8227 4.7417 8.33488C4.7417 8.33541 4.7417 8.33594 4.7417 8.33648C4.81255 8.92505 4.97447 9.37939 5.24459 9.72343C5.36866 9.88146 5.5514 9.89121 5.71064 9.98609C5.87817 10.5381 6.10312 11.0643 6.42174 11.4835C6.62573 11.752 6.8347 11.9901 7.02553 12.185C7.0713 12.2318 7.12695 12.2597 7.16646 12.3003C7.16983 12.719 7.17169 13.1099 7.14084 13.5448C7.05828 13.7244 6.86106 13.9282 6.3865 14.1534C5.88402 14.3917 5.17721 14.6132 4.431 14.8853C3.68478 15.1573 2.89081 15.4813 2.19041 16.0096C1.49001 16.5378 0.890243 17.3084 0.660917 18.3254C0.631666 18.4323 0.624384 18.544 0.639513 18.6538C0.654641 18.7636 0.691865 18.8692 0.748937 18.9642C0.806009 19.0592 0.881745 19.1416 0.97157 19.2066C1.06139 19.2715 1.16344 19.3175 1.27156 19.3419C1.37967 19.3663 1.4916 19.3685 1.60059 19.3484C1.70958 19.3283 1.81336 19.2863 1.90568 19.225C1.99799 19.1637 2.07692 19.0843 2.1377 18.9916C2.19847 18.8989 2.23983 18.7949 2.25928 18.6858C2.39854 18.0681 2.70395 17.6764 3.17697 17.3196C3.64999 16.9629 4.29862 16.6791 4.99314 16.426C5.68766 16.1728 6.41992 15.9517 7.08799 15.6348C7.75606 15.3178 8.42973 14.8701 8.72318 14.0813C8.74862 14.0127 8.76478 13.9411 8.77123 13.8683C8.83986 13.1055 8.81447 12.5694 8.81447 11.94C8.81437 11.7906 8.77344 11.644 8.6961 11.5161C8.61876 11.3883 8.50795 11.284 8.37564 11.2145C8.50931 11.2845 8.33518 11.1785 8.19787 11.0383C8.06057 10.8981 7.88963 10.7025 7.72861 10.4906C7.40659 10.0668 7.15446 9.52145 7.14084 9.39351C7.12309 9.227 7.0548 9.06992 6.94515 8.94337C6.83549 8.81682 6.68973 8.72688 6.52744 8.68562C6.50026 8.64758 6.4148 8.50923 6.37049 8.14109C6.35998 8.05298 6.37366 8.00923 6.3865 7.98413C6.5167 7.8867 6.61499 7.75277 6.66889 7.59935C6.72279 7.44592 6.72986 7.27994 6.6892 7.12249C6.45119 6.20653 6.33885 5.63289 6.35607 4.92034C6.37781 4.05846 6.63243 3.4048 7.12002 2.93441C7.60568 2.46588 8.38024 2.1307 9.61846 2.1048H9.62006C10.447 2.1054 10.8702 2.37106 10.9237 2.46515C10.9859 2.57447 11.0725 2.66802 11.1766 2.73856C11.2807 2.8091 11.3997 2.85474 11.5243 2.87195C12.1225 2.95499 12.3843 3.17765 12.5974 3.53339C12.8104 3.88913 12.9211 4.42576 12.9145 4.99402C12.9032 5.9229 12.7546 6.62528 12.607 7.06804C12.5523 7.23187 12.5507 7.4088 12.6024 7.57359C12.6542 7.73838 12.7567 7.88262 12.8953 7.98573C12.908 8.01105 12.9216 8.0536 12.9113 8.13948C12.8669 8.50857 12.7813 8.64771 12.7543 8.68562C12.592 8.72688 12.4463 8.81682 12.3366 8.94337C12.227 9.06992 12.1587 9.227 12.1409 9.39351C12.1275 9.51926 11.8753 10.0651 11.5515 10.489C11.3897 10.7009 11.2172 10.8963 11.0791 11.0367C10.941 11.1771 10.7656 11.2839 10.8981 11.2145C10.7658 11.284 10.655 11.3883 10.5777 11.5161C10.5003 11.644 10.4594 11.7906 10.4593 11.94C10.4593 12.5679 10.4338 13.1055 10.5025 13.8683C10.509 13.9411 10.5251 14.0127 10.5506 14.0813C10.9067 15.0361 11.7954 15.4362 12.6246 15.7485C13.375 16.0312 14.1633 16.2527 14.8283 16.5157C14.7362 16.7545 14.6855 17.0253 14.7242 17.3501C14.7242 17.3506 14.7242 17.3511 14.7242 17.3517C14.7951 17.94 14.9559 18.393 15.2255 18.737C15.3497 18.8955 15.5322 18.9078 15.6916 19.0029C15.8591 19.5548 16.0857 20.0795 16.4043 20.4987C16.6083 20.7672 16.8156 21.0069 17.0065 21.2018C17.0522 21.2486 17.1079 21.2765 17.1474 21.3171C17.1508 21.7331 17.1521 22.1237 17.1218 22.5551C17.0193 22.7793 16.6901 23.0505 15.9991 23.3287C15.5219 23.5208 14.9358 23.7077 14.3254 23.9341C14.4422 23.4531 14.5459 22.9311 14.5545 22.2284C14.5635 21.4543 14.4375 20.6308 14.0035 19.9062C13.6008 19.2336 12.8634 18.7224 11.9423 18.5336C11.3587 17.9524 10.5401 17.68 9.61846 17.68C9.61365 17.68 9.60885 17.68 9.60404 17.68C8.06271 17.7081 6.82443 18.1561 5.98131 18.9692C5.13818 19.7824 4.74501 20.9113 4.71607 22.0955C4.71607 22.096 4.71607 22.0966 4.71607 22.0971C4.69742 22.8687 4.85734 23.5649 5.04119 24.3313C4.82955 24.6505 4.68059 25.0379 4.7417 25.5501C4.7417 25.5506 4.7417 25.5511 4.7417 25.5517C4.81252 26.14 4.97501 26.593 5.24459 26.937C5.36808 27.0946 5.54902 27.1064 5.70744 27.2013C5.87479 27.7542 6.10274 28.279 6.42174 28.6987C6.62573 28.9672 6.8347 29.2069 7.02553 29.4018C7.0713 29.4486 7.12695 29.4765 7.16646 29.5171C7.16982 29.9347 7.17154 30.3262 7.14084 30.76C7.05844 30.9394 6.85943 31.1434 6.3849 31.3685C5.88249 31.6069 5.17726 31.83 4.431 32.1021C3.68473 32.3741 2.88927 32.6981 2.18881 33.2264C1.48834 33.7546 0.888648 34.5235 0.659316 35.5406C0.611394 35.7528 0.649688 35.9752 0.765779 36.1592C0.88187 36.3431 1.06625 36.4733 1.27838 36.5213C1.4905 36.5693 1.713 36.5311 1.89695 36.4151C2.08089 36.299 2.21122 36.1147 2.25928 35.9026C2.39853 35.2849 2.70389 34.8916 3.17697 34.5348C3.65006 34.1781 4.29696 33.896 4.99154 33.6428C5.68612 33.3896 6.41993 33.1686 7.08799 32.8516C7.75604 32.5346 8.4284 32.0855 8.72158 31.2965C8.74702 31.2279 8.76318 31.1563 8.76963 31.0835C8.83825 30.3207 8.81447 29.7846 8.81447 29.1552C8.81422 29.0056 8.77304 28.8589 8.69541 28.731C8.61778 28.6031 8.50665 28.4989 8.37404 28.4297C8.5077 28.4997 8.33357 28.3953 8.19627 28.2551C8.05897 28.1149 7.88802 27.9193 7.72701 27.7074C7.40498 27.2836 7.15286 26.7366 7.13924 26.6087C7.1214 26.4429 7.05344 26.2865 6.94442 26.1603C6.8354 26.0341 6.6905 25.9441 6.52904 25.9024C6.5021 25.8649 6.41498 25.7259 6.37049 25.3563C6.35998 25.2682 6.37366 25.2244 6.3865 25.1993C6.5167 25.1019 6.61499 24.968 6.66889 24.8145C6.72279 24.6611 6.72986 24.4951 6.6892 24.3377C6.45119 23.4217 6.33885 22.8481 6.35607 22.1355C6.37715 21.273 6.63048 20.6202 7.11842 20.1496C7.60484 19.6805 8.38177 19.3462 9.62326 19.3216C10.4464 19.3236 10.8697 19.5864 10.9221 19.6787C10.9843 19.7881 11.0709 19.8816 11.175 19.9522C11.2791 20.0227 11.3981 20.0683 11.5227 20.0855C12.1209 20.1686 12.3827 20.3928 12.5958 20.7486C12.8088 21.1043 12.9211 21.641 12.9145 22.2092C12.9032 23.1381 12.7546 23.8405 12.607 24.2832C12.5525 24.4467 12.5508 24.6232 12.6023 24.7876C12.6537 24.9521 12.7557 25.0961 12.8937 25.1993C12.9063 25.224 12.9203 25.2669 12.9097 25.3547C12.8651 25.725 12.7778 25.8652 12.7511 25.9024C12.5897 25.9441 12.4448 26.0341 12.3357 26.1603C12.2267 26.2865 12.1588 26.4429 12.1409 26.6087C12.1275 26.7345 11.8737 27.2803 11.5499 27.7042C11.3881 27.9161 11.2172 28.1115 11.0791 28.2519C10.941 28.3923 10.7656 28.4975 10.8981 28.4281C10.7656 28.4977 10.6546 28.6022 10.5772 28.7304C10.4999 28.8586 10.4591 29.0055 10.4593 29.1552C10.4593 29.7831 10.4322 30.3207 10.5009 31.0835C10.5116 31.2008 10.5475 31.3145 10.6061 31.4168C10.6647 31.519 10.7446 31.6075 10.8404 31.676C11.1842 32.2061 11.6714 32.5961 12.2066 32.85C12.8747 33.1669 13.6085 33.388 14.303 33.6412C14.9975 33.8943 15.6446 34.1781 16.1176 34.5348C16.5906 34.8916 16.896 35.2833 17.0353 35.901C17.0578 36.0072 17.1012 36.1078 17.163 36.1971C17.2247 36.2864 17.3035 36.3625 17.3949 36.4211C17.4863 36.4797 17.5884 36.5195 17.6953 36.5384C17.8022 36.5572 17.9118 36.5546 18.0177 36.5307C18.1236 36.5069 18.2237 36.4622 18.3122 36.3994C18.4007 36.3366 18.4759 36.2568 18.5333 36.1647C18.5908 36.0726 18.6294 35.97 18.6469 35.8629C18.6644 35.7557 18.6604 35.6462 18.6353 35.5406C18.4059 34.5236 17.8046 33.753 17.1042 33.2248C16.4038 32.6965 15.6098 32.3725 14.8636 32.1005C14.1174 31.8284 13.4121 31.6069 12.9097 31.3685C12.4211 31.1368 12.2074 30.9255 12.1313 30.7423C12.102 30.317 12.1022 29.9294 12.1057 29.5171C12.1455 29.4764 12.202 29.4488 12.2482 29.4018C12.4397 29.2071 12.6486 28.9687 12.8536 28.7003C13.174 28.2809 13.4028 27.7546 13.5711 27.2013C13.7305 27.1062 13.9133 27.0952 14.0372 26.937C14.2939 26.6091 14.45 26.1781 14.5256 25.6301C15.1934 25.3637 15.9177 25.1293 16.6109 24.8502C17.4574 24.5093 18.3448 24.0625 18.7041 23.0965C18.7296 23.0279 18.7457 22.9563 18.7522 22.8835C18.8208 22.1207 18.7954 21.5846 18.7954 20.9552C18.7953 20.8058 18.7544 20.6592 18.677 20.5313C18.5997 20.4035 18.4889 20.2992 18.3566 20.2297C18.4902 20.2997 18.3161 20.1953 18.1788 20.0551C18.0415 19.9149 17.8706 19.7193 17.7096 19.5074C17.3875 19.0836 17.1354 18.5366 17.1218 18.4087C17.104 18.2422 17.0357 18.0851 16.9261 17.9586C16.8164 17.832 16.6707 17.7421 16.5084 17.7008C16.4811 17.6626 16.3958 17.5246 16.3514 17.1563C16.3407 17.0661 16.3557 17.0221 16.369 16.9977C16.4989 16.9004 16.597 16.7667 16.6509 16.6136C16.7048 16.4606 16.7121 16.2949 16.6717 16.1377C16.4337 15.2217 16.3214 14.6481 16.3386 13.9355C16.3597 13.073 16.613 12.4202 17.101 11.9496C17.5874 11.4805 18.3643 11.1462 19.6058 11.1216C20.4271 11.1241 20.8535 11.3862 20.9063 11.4787C20.9683 11.5879 21.0546 11.6813 21.1584 11.7518C21.2623 11.8224 21.3809 11.8681 21.5053 11.8855C22.1035 11.9686 22.3653 12.1928 22.5783 12.5486C22.7913 12.9043 22.9036 13.4394 22.897 14.0076C22.8857 14.9365 22.7371 15.6405 22.5895 16.0832C22.5354 16.2465 22.5339 16.4226 22.5854 16.5867C22.6368 16.7508 22.7385 16.8946 22.8762 16.9977C22.8889 17.0222 22.9029 17.0646 22.8922 17.1531C22.8922 17.1536 22.8922 17.1541 22.8922 17.1547C22.8477 17.525 22.7603 17.6636 22.7337 17.7008C22.5722 17.7425 22.4273 17.8325 22.3183 17.9587C22.2093 18.0849 22.1413 18.2413 22.1235 18.4071C22.1101 18.5329 21.8562 19.0803 21.5325 19.5042C21.3706 19.7161 21.1997 19.9115 21.0616 20.0519C20.9235 20.1923 20.7481 20.2975 20.8806 20.2281C20.7483 20.2976 20.6375 20.4019 20.5602 20.5297C20.4829 20.6576 20.4419 20.8041 20.4418 20.9536C20.4418 21.5815 20.4147 22.1191 20.4835 22.8819C20.4904 22.9548 20.5071 23.0264 20.5331 23.0949C20.8909 24.0553 21.7856 24.4539 22.6199 24.7669C23.2274 24.9948 23.8445 25.1874 24.4185 25.3899C24.4203 25.4436 24.4149 25.4934 24.4217 25.5501C24.4217 25.5506 24.4217 25.5511 24.4217 25.5517C24.4925 26.14 24.655 26.593 24.9246 26.937C25.0481 27.0946 25.229 27.1064 25.3874 27.2013C25.5548 27.7542 25.7827 28.279 26.1017 28.6987C26.3057 28.9672 26.5147 29.2069 26.7055 29.4018C26.7513 29.4486 26.807 29.4765 26.8465 29.5171C26.8498 29.9347 26.8515 30.3262 26.8208 30.76C26.7384 30.9394 26.5394 31.1434 26.0649 31.3685C25.5625 31.6069 24.8573 31.83 24.111 32.1021C23.3647 32.3741 22.5693 32.6981 21.8688 33.2264C21.1683 33.7546 20.5686 34.5235 20.3393 35.5406C20.2913 35.7528 20.3296 35.9753 20.4457 36.1593C20.5617 36.3433 20.7462 36.4736 20.9583 36.5216C21.1705 36.5696 21.393 36.5313 21.577 36.4152C21.761 36.2991 21.8913 36.1147 21.9393 35.9026C22.0785 35.285 22.3839 34.8916 22.857 34.5348C23.3301 34.1781 23.977 33.896 24.6715 33.6428C25.3661 33.3896 26.0999 33.1686 26.768 32.8516C27.436 32.5346 28.1084 32.0855 28.4016 31.2965C28.427 31.2279 28.4432 31.1563 28.4496 31.0835C28.5183 30.3207 28.4945 29.7846 28.4945 29.1552C28.4942 29.0056 28.453 28.8589 28.3754 28.731C28.2978 28.6031 28.1866 28.4989 28.054 28.4297C28.1877 28.4997 28.0136 28.3953 27.8763 28.2551C27.739 28.1149 27.568 27.9193 27.407 27.7074C27.085 27.2836 26.8329 26.7366 26.8192 26.6087C26.8014 26.4429 26.7334 26.2865 26.6244 26.1603C26.5154 26.0341 26.3705 25.9441 26.209 25.9024C26.1821 25.8649 26.095 25.7259 26.0505 25.3563C26.0501 25.3527 26.0508 25.3517 26.0505 25.3483C26.1031 25.2747 26.1431 25.193 26.169 25.1064C26.2648 25.0058 26.3334 24.8824 26.3684 24.7479C26.4034 24.6135 26.4037 24.4723 26.3692 24.3377C26.1312 23.4217 26.0189 22.8481 26.0361 22.1355C26.0572 21.273 26.3105 20.6202 26.7984 20.1496C27.2848 19.6805 28.0618 19.3462 29.3033 19.3216C30.1264 19.3236 30.5497 19.5864 30.6021 19.6787C30.6643 19.7881 30.7509 19.8816 30.855 19.9522C30.9591 20.0227 31.0781 20.0683 31.2027 20.0855C31.8009 20.1686 32.0627 20.3928 32.2758 20.7486C32.4888 21.1043 32.6011 21.641 32.5945 22.2092C32.5832 23.1381 32.4346 23.8405 32.287 24.2832C32.2325 24.4467 32.2308 24.6232 32.2823 24.7876C32.3337 24.9521 32.4357 25.0961 32.5737 25.1993C32.5864 25.2238 32.6003 25.2662 32.5897 25.3547C32.5451 25.725 32.4578 25.8652 32.4311 25.9024C32.2697 25.9441 32.1248 26.0341 32.0157 26.1603C31.9067 26.2865 31.8388 26.4429 31.8209 26.6087C31.8075 26.7345 31.5537 27.2803 31.2299 27.7042C31.0681 27.9161 30.8972 28.1115 30.7591 28.2519C30.621 28.3923 30.4456 28.4975 30.5781 28.4281C30.4456 28.4977 30.3346 28.6022 30.2572 28.7304C30.1799 28.8586 30.1391 29.0055 30.1393 29.1552C30.1393 29.7831 30.1122 30.3207 30.1809 31.0835C30.1916 31.2008 30.2275 31.3145 30.2861 31.4168C30.3447 31.519 30.4246 31.6075 30.5204 31.676C30.8642 32.2061 31.3514 32.5961 31.8866 32.85C32.5547 33.1669 33.2885 33.388 33.983 33.6412C34.6775 33.8943 35.3246 34.1781 35.7976 34.5348C36.2706 34.8916 36.576 35.2833 36.7153 35.901C36.7378 36.0072 36.7812 36.1078 36.843 36.1971C36.9047 36.2864 36.9835 36.3625 37.0749 36.4211C37.1663 36.4797 37.2684 36.5195 37.3753 36.5384C37.4822 36.5572 37.5918 36.5546 37.6977 36.5307C37.8036 36.5069 37.9037 36.4622 37.9922 36.3994C38.0807 36.3366 38.1559 36.2568 38.2133 36.1647C38.2708 36.0726 38.3094 35.97 38.3269 35.8629C38.3444 35.7557 38.3404 35.6462 38.3153 35.5406C38.0859 34.5236 37.4846 33.753 36.7842 33.2248C36.0838 32.6965 35.2898 32.3725 34.5436 32.1005C33.7974 31.8284 33.0921 31.6069 32.5897 31.3685C32.1011 31.1368 31.8874 30.9255 31.8113 30.7423C31.782 30.317 31.7822 29.9294 31.7857 29.5171C31.8255 29.4764 31.882 29.4488 31.9282 29.4018C32.1197 29.2071 32.3286 28.9687 32.5336 28.7003C32.854 28.2809 33.0828 27.7546 33.2511 27.2013C33.4105 27.1062 33.5933 27.0952 33.7172 26.937C33.9866 26.5929 34.1476 26.1393 34.2185 25.5517V25.5501C34.2801 25.0359 34.1302 24.6452 33.9158 24.3249C34.07 23.7472 34.2236 23.1175 34.2345 22.2284C34.2435 21.4543 34.1175 20.6308 33.6835 19.9062C33.2808 19.2335 32.5434 18.7224 31.6223 18.5336C31.0387 17.9524 30.2201 17.68 29.2985 17.68C29.2937 17.68 29.2888 17.68 29.284 17.68C27.7427 17.7081 26.5044 18.1561 25.6613 18.9692C24.8182 19.7824 24.425 20.9113 24.3961 22.0955C24.3961 22.096 24.3961 22.0966 24.3961 22.0971C24.3827 22.6492 24.4722 23.1689 24.5851 23.6971C24.0843 23.5301 23.6016 23.3836 23.1949 23.231C22.5139 22.9756 22.1924 22.7096 22.1138 22.5503C22.084 22.1216 22.0847 21.7316 22.0882 21.3171C22.1281 21.2764 22.1845 21.2488 22.2308 21.2018C22.4222 21.0071 22.6312 20.7671 22.8362 20.4987C23.1564 20.0794 23.3853 19.5545 23.5537 19.0013C23.713 18.9062 23.8959 18.8952 24.0197 18.737C24.2894 18.3926 24.4502 17.9385 24.521 17.3501C24.5595 17.0312 24.511 16.7645 24.4217 16.5285C25.0624 16.285 25.7432 16.0642 26.3916 15.7966C27.2064 15.4602 28.054 15.011 28.4016 14.0765C28.427 14.0079 28.4432 13.9363 28.4496 13.8635C28.5183 13.1007 28.4945 12.5646 28.4945 11.9352C28.4942 11.7856 28.453 11.6389 28.3754 11.511C28.2978 11.3831 28.1866 11.2789 28.054 11.2097C28.1877 11.2797 28.0136 11.1753 27.8763 11.0351C27.739 10.8949 27.568 10.6993 27.407 10.4874C27.085 10.0636 26.8329 9.51664 26.8192 9.3887C26.8014 9.2229 26.7334 9.06647 26.6244 8.94028C26.5154 8.81409 26.3705 8.72414 26.209 8.68241C26.1821 8.64488 26.095 8.50593 26.0505 8.13628C26.04 8.04818 26.0537 8.00443 26.0665 7.97933C26.1967 7.8819 26.295 7.74796 26.3489 7.59454C26.4028 7.44112 26.4099 7.27514 26.3692 7.11769C26.1312 6.20172 26.0189 5.62809 26.0361 4.91554C26.0572 4.05298 26.3105 3.40018 26.7984 2.9296C27.2848 2.46049 28.0618 2.12622 29.3033 2.10159C30.1264 2.10357 30.5497 2.36637 30.6021 2.45874C30.6643 2.56807 30.7509 2.66162 30.855 2.73216C30.9591 2.80269 31.0781 2.84833 31.2027 2.86554C31.8009 2.94858 32.0627 3.17284 32.2758 3.52859C32.4888 3.88433 32.6011 4.42096 32.5945 4.98921C32.5832 5.9181 32.4346 6.62047 32.287 7.06323C32.2325 7.22669 32.2308 7.40316 32.2823 7.56761C32.3337 7.73205 32.4357 7.87611 32.5737 7.97933C32.5864 8.0038 32.6003 8.04619 32.5897 8.13468C32.5451 8.50505 32.4578 8.64523 32.4311 8.68241C32.2697 8.72414 32.1248 8.81409 32.0157 8.94028C31.9067 9.06647 31.8388 9.2229 31.8209 9.3887C31.8075 9.51446 31.5537 10.0603 31.2299 10.4842C31.0681 10.6961 30.8972 10.8915 30.7591 11.0319C30.621 11.1723 30.4456 11.2775 30.5781 11.2081C30.4456 11.2777 30.3346 11.3822 30.2572 11.5104C30.1799 11.6386 30.1391 11.7855 30.1393 11.9352C30.1393 12.5631 30.1122 13.1007 30.1809 13.8635C30.1916 13.9808 30.2275 14.0945 30.2861 14.1968C30.3447 14.299 30.4246 14.3875 30.5204 14.456C30.8642 14.9861 31.3514 15.3761 31.8866 15.63C32.5547 15.9469 33.2885 16.168 33.983 16.4212C34.6775 16.6743 35.3246 16.9581 35.7976 17.3148C36.2706 17.6716 36.576 18.0633 36.7153 18.681C36.7378 18.7872 36.7812 18.8878 36.843 18.9771C36.9047 19.0664 36.9835 19.1425 37.0749 19.2011C37.1663 19.2597 37.2684 19.2995 37.3753 19.3184C37.4822 19.3372 37.5918 19.3346 37.6977 19.3107C37.8036 19.2869 37.9037 19.2423 37.9922 19.1794C38.0807 19.1166 38.1559 19.0368 38.2133 18.9447C38.2708 18.8526 38.3094 18.75 38.3269 18.6429C38.3444 18.5357 38.3404 18.4262 38.3153 18.3206C38.0859 17.3036 37.4846 16.533 36.7842 16.0048C36.0838 15.4765 35.2898 15.1525 34.5436 14.8805C33.7974 14.6084 33.0921 14.3869 32.5897 14.1485C32.1011 13.9168 31.8874 13.7055 31.8113 13.5223C31.782 13.097 31.7822 12.7094 31.7857 12.2971C31.8255 12.2564 31.882 12.2288 31.9282 12.1818C32.1197 11.9871 32.3286 11.7487 32.5336 11.4803C32.854 11.0609 33.0828 10.5346 33.2511 9.98128C33.4105 9.88622 33.5933 9.87517 33.7172 9.71702C33.9866 9.37293 34.1476 8.91926 34.2185 8.33167V8.33007C34.2801 7.81594 34.1302 7.42515 33.9158 7.10488C34.07 6.52721 34.2236 5.89754 34.2345 5.00843C34.2435 4.23435 34.1175 3.41077 33.6835 2.68616C33.2808 2.01358 32.5434 1.50245 31.6223 1.31363C31.0387 0.732377 30.2201 0.459993 29.2985 0.459993C29.2937 0.45995 29.2888 0.45995 29.284 0.459993Z"/>
    </symbol>
    <symbol id="clock" viewBox="0 0 39 39">
        <path d="M11.5162 0.704102C6.65537 2.74237 2.74237 6.65537 0.704102 11.5162L2.21598 12.1505C4.08583 7.69123 7.69123 4.08583 12.1505 2.21598L11.5162 0.704102ZM19.5 2.28004C9.99941 2.28004 2.28004 9.99941 2.28004 19.5C2.28004 29.0007 9.99941 36.72 19.5 36.72C29.0007 36.72 36.72 29.0007 36.72 19.5C36.72 9.99941 29.0007 2.28004 19.5 2.28004ZM19.5 3.92004C28.1143 3.92004 35.08 10.8857 35.08 19.5C35.08 28.1143 28.1143 35.08 19.5 35.08C10.8857 35.08 3.92004 28.1143 3.92004 19.5C3.92004 10.8857 10.8857 3.92004 19.5 3.92004ZM18.68 7.20004V18.0827C18.4312 18.2263 18.2244 18.4329 18.0805 18.6817C17.9366 18.9304 17.8605 19.2126 17.86 19.5C17.86 19.935 18.0328 20.3521 18.3404 20.6597C18.6479 20.9673 19.0651 21.14 19.5 21.14C19.6434 21.14 19.786 21.1211 19.9245 21.084L24.6603 25.8198L25.8198 24.6603L21.0824 19.9228C21.1199 19.785 21.1393 19.6429 21.14 19.5C21.1398 19.2124 21.0639 18.9298 20.92 18.6808C20.7761 18.4317 20.5692 18.2249 20.32 18.0811V7.20004H18.68ZM36.7889 26.84C34.84 31.3151 31.3059 34.9155 26.8496 36.7841L27.4838 38.296C32.3476 36.2565 36.1811 32.3401 38.2912 27.495L36.7889 26.84Z"/>
    </symbol>
    <symbol id="date" viewBox="0 0 36 37">
        <path d="M8.12002 0C7.72313 0 7.31852 0.14541 7.03197 0.431953C6.74543 0.718496 6.60002 1.12311 6.60002 1.52V3.04H2.04002C1.64313 3.04 1.23852 3.18541 0.951973 3.47195C0.665429 3.7585 0.52002 4.16311 0.52002 4.56V10.64V34.96C0.52002 35.3569 0.665429 35.7615 0.951973 36.048C1.23852 36.3346 1.64313 36.48 2.04002 36.48H33.96C34.3569 36.48 34.7615 36.3346 35.0481 36.048C35.3346 35.7615 35.48 35.3569 35.48 34.96V10.64V4.56C35.48 4.16311 35.3346 3.7585 35.0481 3.47195C34.7615 3.18541 34.3569 3.04 33.96 3.04H29.4V1.52C29.4 1.12311 29.2546 0.718496 28.9681 0.431953C28.6815 0.14541 28.2769 0 27.88 0H26.36C25.9631 0 25.5585 0.14541 25.272 0.431953C24.9854 0.718496 24.84 1.12311 24.84 1.52V3.04H11.16V1.52C11.16 1.12311 11.0146 0.718496 10.7281 0.431953C10.4415 0.14541 10.0369 0 9.64002 0H8.12002ZM8.12002 1.52H9.64002V6.08H8.12002V1.52ZM26.36 1.52H27.88V3.67234C27.8665 3.75442 27.8665 3.83816 27.88 3.92023V6.08H26.36V1.52ZM2.04002 4.56H6.60002V6.08C6.60002 6.47689 6.74543 6.8815 7.03197 7.16805C7.31852 7.45459 7.72313 7.6 8.12002 7.6H9.64002C10.0369 7.6 10.4415 7.45459 10.7281 7.16805C11.0146 6.8815 11.16 6.47689 11.16 6.08V4.56H24.84V6.08C24.84 6.47689 24.9854 6.8815 25.272 7.16805C25.5585 7.45459 25.9631 7.6 26.36 7.6H27.88C28.2769 7.6 28.6815 7.45459 28.9681 7.16805C29.2546 6.8815 29.4 6.47689 29.4 6.08V4.56H33.96V9.88H2.04002V4.56ZM2.04002 11.4H33.96V34.96H2.04002V11.4ZM12.6681 14.4296C12.6318 14.4305 12.5956 14.434 12.5598 14.44H7.36002C7.15846 14.44 6.96516 14.5201 6.82264 14.6626C6.68012 14.8051 6.60004 14.9984 6.60002 15.2V20.3923C6.58645 20.4744 6.58645 20.5582 6.60002 20.6402V25.7123C6.58645 25.7944 6.58645 25.8782 6.60002 25.9602V31.16C6.60004 31.3616 6.68012 31.5549 6.82264 31.6974C6.96516 31.8399 7.15846 31.92 7.36002 31.92H12.5524C12.6344 31.9336 12.7182 31.9336 12.8003 31.92H17.8724C17.9544 31.9336 18.0382 31.9336 18.1203 31.92H21.8H23.1924C23.2744 31.9336 23.3582 31.9336 23.4403 31.92H28.64C28.8416 31.92 29.0349 31.8399 29.1774 31.6974C29.3199 31.5549 29.4 31.3616 29.4 31.16V25.9677C29.4136 25.8856 29.4136 25.8018 29.4 25.7198V20.6477C29.4136 20.5656 29.4136 20.4818 29.4 20.3998V15.2C29.4 14.9984 29.3199 14.8051 29.1774 14.6626C29.0349 14.5201 28.8416 14.44 28.64 14.44H23.4477C23.3656 14.4264 23.2819 14.4264 23.1998 14.44H18.1277C18.0456 14.4264 17.9619 14.4264 17.8798 14.44H12.8077C12.7616 14.4323 12.7149 14.4288 12.6681 14.4296ZM8.12002 15.96H11.92V19.76H8.12002V15.96ZM13.44 15.96H17.24V19.76H13.44V15.96ZM18.76 15.96H22.56V19.76H18.76V15.96ZM24.08 15.96H27.88V19.76H24.08V15.96ZM8.12002 21.28H11.92V25.08H8.12002V21.28ZM13.44 21.28H17.24V25.08H13.44V21.28ZM18.76 21.28H22.56V25.08H18.76V21.28ZM24.08 21.28H27.88V25.08H24.08V21.28ZM8.12002 26.6H11.92V30.4H8.12002V26.6ZM13.44 26.6H17.24V30.4H13.44V26.6ZM18.76 26.6H22.56V30.4H21.8H18.76V26.6ZM24.08 26.6H27.88V30.4H24.08V26.6Z"/>
    </symbol>
    <symbol id="timer" viewBox="0 0 35 39">
        <path d="M15.8601 0.639893V3.99036C7.122 4.81822 0.270508 12.1875 0.270508 21.1399C0.270508 30.6456 7.99439 38.3695 17.5001 38.3695C27.0058 38.3695 34.7297 30.6456 34.7297 21.1399C34.7297 12.1875 27.8782 4.81822 19.1401 3.99036V0.639893H15.8601ZM31.4754 1.45989L29.1563 3.77896L30.2149 4.83759L28.9801 6.07399L30.3398 7.43372L31.5747 6.19731L32.6349 7.25755L34.9539 4.93849L31.4754 1.45989ZM17.5001 5.5695C26.1093 5.5695 33.0705 12.5307 33.0705 21.1399C33.0705 29.7491 26.1093 36.7103 17.5001 36.7103C8.89091 36.7103 1.92973 29.7491 1.92973 21.1399C1.92973 12.5307 8.89091 5.5695 17.5001 5.5695ZM17.4873 8.81907C17.2675 8.82242 17.0581 8.91285 16.905 9.0705C16.7518 9.22814 16.6675 9.44013 16.6705 9.65989V18.8256C16.1935 18.9965 15.7809 19.3105 15.4891 19.7247C15.1972 20.139 15.0405 20.6332 15.0401 21.1399C15.0408 21.6463 15.1977 22.1402 15.4895 22.5541C15.7813 22.968 16.1938 23.2818 16.6705 23.4526V25.2399C16.6705 25.4599 16.7579 25.6709 16.9135 25.8265C17.0691 25.9821 17.2801 26.0695 17.5001 26.0695C17.7201 26.0695 17.9312 25.9821 18.0867 25.8265C18.2423 25.6709 18.3297 25.4599 18.3297 25.2399V23.4542C18.8067 23.2833 19.2194 22.9693 19.5112 22.555C19.803 22.1408 19.9598 21.6466 19.9601 21.1399C19.9595 20.6335 19.8025 20.1396 19.5107 19.7257C19.2189 19.3118 18.8065 18.998 18.3297 18.8272V9.65989C18.3313 9.54892 18.3105 9.43876 18.2687 9.33596C18.2269 9.23315 18.1648 9.13978 18.0863 9.06137C18.0077 8.98297 17.9142 8.92112 17.8114 8.8795C17.7085 8.83788 17.5983 8.81734 17.4873 8.81907Z"/>
    </symbol>
    <symbol id="check_up" viewBox="0 0 20 13">
        <path d="M19.3968 9.5686L10.174 0.568604L7.3804 3.4314L16.6032 12.4314L19.3968 9.5686ZM3.39682 12.4314L12.6196 3.4314L9.82596 0.568604L0.603182 9.5686L3.39682 12.4314Z"/>
    </symbol>
</svg>